<?xml version="1.0" encoding="UTF-8" standalone="no"?>
<svg
   class="h-5 w-5"
   fill="#000000"
   version="1.1"
   viewBox="0 0 20 20"
   id="svg1008"
   sodipodi:docname="muted.svg"
   inkscape:version="1.2.1 (9c6d41e410, 2022-07-14)"
   xmlns:inkscape="http://www.inkscape.org/namespaces/inkscape"
   xmlns:sodipodi="http://sodipodi.sourceforge.net/DTD/sodipodi-0.dtd"
   xmlns="http://www.w3.org/2000/svg"
   xmlns:svg="http://www.w3.org/2000/svg">
  <defs
     id="defs1012" />
  <sodipodi:namedview
     id="namedview1010"
     pagecolor="#ffffff"
     bordercolor="#999999"
     borderopacity="1"
     inkscape:showpageshadow="0"
     inkscape:pageopacity="0"
     inkscape:pagecheckerboard="0"
     inkscape:deskcolor="#d1d1d1"
     showgrid="false"
     inkscape:zoom="50"
     inkscape:cx="1.81"
     inkscape:cy="11.52"
     inkscape:window-width="3840"
     inkscape:window-height="2054"
     inkscape:window-x="-11"
     inkscape:window-y="-11"
     inkscape:window-maximized="1"
     inkscape:current-layer="svg1008" />
  <path
     d="M 8.9283,3.076 C 9.30189,3.2309 9.5454,3.59557 9.5453,4 v 12 c -1.902e-4,0.89073 -1.0771,1.3367 -1.707,0.707 L 4.1313,13 h -2.586 c -0.55228,0 -1,-0.44772 -1,-1 V 8 c 0,-0.55228 0.44772,-1 1,-1 h 2.586 L 7.8383,3.293 C 8.12429,3.00683 8.55452,2.92118 8.9283,3.076 Z"
     clip-rule="evenodd"
     fill-rule="evenodd"
     id="path1004" />
  <path
     d="m 11.788,6.3241 c 0.53303,-0.53287 1.3971,-0.53287 1.9301,0 L 15.483,8.089 17.2479,6.3241 c 1.2865,-1.3321 3.2622,0.64357 1.9301,1.9301 l -1.7649,1.7649 1.7649,1.7649 c 1.2426,1.2865 -0.64356,3.1727 -1.9301,1.9301 L 15.483,11.9492 13.7181,13.7141 C 12.4316,14.9567 10.5454,13.07054 11.788,11.784 L 13.5529,10.0191 11.788,8.2542 c -0.53287,-0.53303 -0.53287,-1.3971 0,-1.9301 z"
     clip-rule="evenodd"
     fill-rule="evenodd"
     stroke-width="1.365"
     id="path1006"
     style="fill:#d10000;fill-opacity:1" />
</svg>
