<?xml version="1.0" encoding="UTF-8" standalone="no"?>
<svg
   class="h-5 w-5"
   fill="#FFFFFF"
   version="1.1"
   viewBox="0 0 20 20"
   id="svg6"
   sodipodi:docname="unmuted.svg"
   inkscape:export-filename="unmuted-128.png"
   inkscape:export-xdpi="614.40002"
   inkscape:export-ydpi="614.40002"
   inkscape:version="1.2.1 (9c6d41e410, 2022-07-14)"
   xmlns:inkscape="http://www.inkscape.org/namespaces/inkscape"
   xmlns:sodipodi="http://sodipodi.sourceforge.net/DTD/sodipodi-0.dtd"
   xmlns="http://www.w3.org/2000/svg"
   xmlns:svg="http://www.w3.org/2000/svg">
  <defs
     id="defs10" />
  <sodipodi:namedview
     id="namedview8"
     pagecolor="#ffffff"
     bordercolor="#999999"
     borderopacity="1"
     inkscape:showpageshadow="0"
     inkscape:pageopacity="0"
     inkscape:pagecheckerboard="0"
     inkscape:deskcolor="#d1d1d1"
     showgrid="false"
     inkscape:zoom="66.75088"
     inkscape:cx="5.3033009"
     inkscape:cy="11.235807"
     inkscape:window-width="3840"
     inkscape:window-height="2054"
     inkscape:window-x="3829"
     inkscape:window-y="-11"
     inkscape:window-maximized="1"
     inkscape:current-layer="svg6" />
  <path
     d="M 9.083,3.076 C 9.45659,3.2309 9.7001,3.59557 9.7,4 v 12 c -1.9e-4,0.89073 -1.0771,1.3367 -1.707,0.707 L 4.286,13 H 1.7 c -0.55228,0 -1,-0.44772 -1,-1 V 8 c 0,-0.55228 0.44772,-1 1,-1 H 4.286 L 7.993,3.293 C 8.27899,3.00683 8.70922,2.92118 9.083,3.076 Z"
     id="path2" />
  <path
     d="m 15.663,2.6367 c -0.25587,0 -0.51178,0.097778 -0.70703,0.29297 -0.39038,0.3905 -0.39038,1.0236 0,1.4141 1.449,1.449 2.3438,3.4463 2.3438,5.6562 0.0033,2.1224 -0.84077,4.1577 -2.3438,5.6562 -0.91032,0.94252 0.47154,2.3244 1.4141,1.4141 1.878,-1.8736 2.9328,-4.4176 2.9297,-7.0703 0.0031,-2.6528 -1.0517,-5.1967 -2.9297,-7.0703 C 16.17482,2.73448 15.91891,2.6367 15.66304,2.6367 Z m -2.8281,2.8262 c -0.2561,0 -0.51172,0.099398 -0.70703,0.29492 -0.39105,0.39061 -0.39105,1.0234 0,1.4141 0.75179,0.74891 1.1735,1.767 1.1719,2.8281 0.0015,1.0611 -0.42018,2.0792 -1.1719,2.8281 -0.94333,0.94333 0.47073,2.3574 1.4141,1.4141 1.1267,-1.1244 1.7598,-2.6505 1.7578,-4.2422 0.0021,-1.5917 -0.63105,-3.1179 -1.7578,-4.2422 C 13.34666,5.5623 13.09103,5.4629 12.83494,5.4629 Z"
     id="path4" />
</svg>
